<?xml version="1.0" encoding="UTF-8"?>
<svg version="1.1" xmlns="http://www.w3.org/2000/svg" width="100" height="100">
<path d="M0 0 C33 0 66 0 100 0 C100 33 100 66 100 100 C67 100 34 100 0 100 C0 67 0 34 0 0 Z " fill="#FAFCFB" transform="translate(0,0)"/>
<path d="M0 0 C3.98208666 3.45114177 7.32213496 6.96640488 9 12 C9.94101563 11.95359375 10.88203125 11.9071875 11.8515625 11.859375 C22.02827225 11.56439791 22.02827225 11.56439791 26.625 13.625 C30.64583897 17.64583897 33.21313158 20.69568665 33.4375 26.5 C33.22955336 30.62427494 32.34153667 33.52806632 30 37 C25.37522042 41.17358158 22.88294067 42.12497184 16.71777344 42.19287109 C15.75155815 42.20513733 15.75155815 42.20513733 14.76582336 42.21765137 C12.63035001 42.24249777 10.4949432 42.25902122 8.359375 42.2734375 C7.26458706 42.28142302 7.26458706 42.28142302 6.14768219 42.28956985 C2.28287303 42.316301 -1.58190387 42.33567402 -5.44677734 42.35009766 C-8.64205618 42.36342724 -11.83669491 42.39126008 -15.03173828 42.43212891 C-18.89205773 42.48150716 -22.75179735 42.5062251 -26.61241913 42.51332474 C-28.08121823 42.52002852 -29.55000484 42.53522817 -31.01862335 42.55921555 C-43.95537244 42.7584211 -43.95537244 42.7584211 -47.82324219 39.65478516 C-51.39485234 35.29883083 -52.55118062 32.88225367 -52.4609375 27.359375 C-51.66273319 23.27365124 -49.07143456 20.67358034 -46 18 C-42.78548731 16.39274365 -39.56387464 16.94251815 -36 17 C-35.90525391 16.14728516 -35.90525391 16.14728516 -35.80859375 15.27734375 C-34.73507299 8.50851285 -32.09957465 5.38404413 -27 1 C-26.484375 0.45472656 -25.96875 -0.09054688 -25.4375 -0.65234375 C-19.74087635 -5.99292842 -6.21517367 -3.49603519 0 0 Z " fill="#25A2B8" transform="translate(60,38)"/>
<path d="M0 0 C4.65465431 3.55332985 8.01451511 7.7116809 9.75 13.3359375 C9.9453125 16.88671875 9.9453125 16.88671875 9.875 20.6484375 C9.85695312 21.90269531 9.83890625 23.15695313 9.8203125 24.44921875 C9.79710937 25.40183594 9.77390625 26.35445312 9.75 27.3359375 C9.255 26.3459375 9.255 26.3459375 8.75 25.3359375 C6.48774618 24.26339399 6.48774618 24.26339399 3.75 23.3359375 C2.87472656 22.98789062 1.99945313 22.63984375 1.09765625 22.28125 C-2.93182296 21.14340406 -6.46947644 21.11324888 -10.625 21.2109375 C-11.36105469 21.21996094 -12.09710938 21.22898437 -12.85546875 21.23828125 C-14.6537888 21.26163606 -16.45193911 21.29749914 -18.25 21.3359375 C-18.58 22.3259375 -18.91 23.3159375 -19.25 24.3359375 C-21.1966718 26.17992771 -23.25800719 27.83063662 -25.33984375 29.51953125 C-27.27441554 31.35915473 -28.22471492 32.89350446 -29.25 35.3359375 C-34.55101109 29.15142457 -35.72629762 24.37976478 -35.55859375 16.33984375 C-34.92383862 10.16102485 -32.38900973 6.12463606 -27.875 1.9609375 C-20.09256569 -4.06840108 -8.62210689 -5.0654878 0 0 Z " fill="#FABD05" transform="translate(54.25,14.6640625)"/>
<path d="M0 0 C6.35678777 -0.45405627 10.73285492 0.27817434 16 4 C20.81571521 8.49608809 23.82510939 12.82048869 24.1953125 19.55078125 C24.17210937 20.79214844 24.14890625 22.03351562 24.125 23.3125 C24.10695312 24.56675781 24.08890625 25.82101563 24.0703125 27.11328125 C24.04710937 28.06589844 24.02390625 29.01851562 24 30 C23.505 29.01 23.505 29.01 23 28 C20.73774618 26.92745649 20.73774618 26.92745649 18 26 C17.12472656 25.65195312 16.24945313 25.30390625 15.34765625 24.9453125 C11.31817704 23.80746656 7.78052356 23.77731138 3.625 23.875 C2.88894531 23.88402344 2.15289062 23.89304687 1.39453125 23.90234375 C-0.4037888 23.92569856 -2.20193911 23.96156164 -4 24 C-4.33 24.99 -4.66 25.98 -5 27 C-6.9466718 28.84399021 -9.00800719 30.49469912 -11.08984375 32.18359375 C-13.02441554 34.02321723 -13.97471492 35.55756696 -15 38 C-20.30450688 31.81140864 -21.43524078 27.06097915 -21.3359375 19.02734375 C-20.84650768 14.61678436 -19.31142572 11.75606679 -17 8 C-15.66667905 10.6666419 -16.32897967 12.16680303 -17 15 C-17.66 15 -18.32 15 -19 15 C-19 20.28 -19 25.56 -19 31 C-17.68 31.33 -16.36 31.66 -15 32 C-15 31.34 -15 30.68 -15 30 C-14.34 30 -13.68 30 -13 30 C-13 29.34 -13 28.68 -13 28 C-12.34 28 -11.68 28 -11 28 C-10.773125 27.4225 -10.54625 26.845 -10.3125 26.25 C-7.90222297 22.11809653 -4.72682859 20.01637458 -0.1875 18.75 C5.96142787 17.44147109 11.83682304 17.76736461 18 19 C18 17.35 18 15.7 18 14 C17.34 14 16.68 14 16 14 C15.71125 13.360625 15.4225 12.72125 15.125 12.0625 C14.17176549 9.84793921 14.17176549 9.84793921 12 9 C12 7.68 12 6.36 12 5 C10.68 4.67 9.36 4.34 8 4 C8 3.34 8 2.68 8 2 C5.36 1.67 2.72 1.34 0 1 C0 0.67 0 0.34 0 0 Z " fill="#F39D1F" transform="translate(40,12)"/>
<path d="M0 0 C4.95618861 -0.35261421 8.82917054 -0.5637327 13.375 1.625 C16.8326801 4.75337724 19.58522698 7.40417336 20.34765625 12.17578125 C20.54020605 17.15696087 19.84263704 20.78505543 17 25 C12.35491117 29.19190943 9.90752569 30.12529948 3.71435547 30.11352539 C3.07032776 30.11367142 2.42630005 30.11381744 1.76275635 30.1139679 C-0.36913402 30.1132704 -2.50093737 30.10548566 -4.6328125 30.09765625 C-6.10968986 30.09579149 -7.58656784 30.09436786 -9.06344604 30.09336853 C-12.95312199 30.08954792 -16.84276067 30.07972152 -20.73242188 30.06866455 C-24.70051571 30.05844064 -28.66861555 30.05386881 -32.63671875 30.04882812 C-40.42449616 30.03809885 -48.21224286 30.02102789 -56 30 C-56 29.67 -56 29.34 -56 29 C-55.23214172 28.99191315 -54.46428345 28.98382629 -53.67315674 28.97549438 C-46.43391011 28.89752709 -39.19486442 28.81023014 -31.95586014 28.71247292 C-28.23428316 28.66254444 -24.51273409 28.61621426 -20.79101562 28.578125 C-17.19879587 28.54122837 -13.60681157 28.49485683 -10.0147934 28.44193649 C-8.64492679 28.42341574 -7.27500976 28.40829919 -5.90506744 28.39665604 C-3.98511344 28.37975468 -2.06529014 28.34958574 -0.14550781 28.31884766 C0.94703308 28.30552399 2.03957397 28.29220032 3.16522217 28.2784729 C6.00200797 27.99980275 7.66322353 27.61056983 10 26 C12.28434959 20.51756098 12.6590036 14.89109281 12 9 C10.38727433 5.31376989 9.369675 4.24645 6 2 C4.0103005 1.60986284 2.00980131 1.26797351 0 1 C0 0.67 0 0.34 0 0 Z " fill="#228A98" transform="translate(73,50)"/>
<path d="M0 0 C2.8125 2.4375 2.8125 2.4375 5 5 C5.5775 5.66 6.155 6.32 6.75 7 C8.22239545 9.35583273 8.71013535 11.2462858 9 14 C8.67 14.66 8.34 15.32 8 16 C7.34 16 6.68 16 6 16 C5.87625 16.78375 5.7525 17.5675 5.625 18.375 C5 21 5 21 3 23 C1.31954393 21.31954393 1.71483097 19.11611727 1.5625 16.8125 C1.22172841 12.59132939 0.60379458 8.95602664 -1 5 C-1.66 5 -2.32 5 -3 5 C-4.68762851 3.3545622 -6.3540349 1.68711423 -8 0 C-10.52053595 -1.26026798 -11.8542098 -0.91874445 -14.625 -0.5625 C-15.44226562 -0.46066406 -16.25953125 -0.35882813 -17.1015625 -0.25390625 C-17.72804688 -0.17011719 -18.35453125 -0.08632813 -19 0 C-19 0.66 -19 1.32 -19 2 C-21.97 1.505 -21.97 1.505 -25 1 C-24.67 0.01 -24.34 -0.98 -24 -2 C-15.83226596 -3.71952296 -7.46705391 -4.20021783 0 0 Z " fill="#278892" transform="translate(60,38)"/>
<path d="M0 0 C3.63 0 7.26 0 11 0 C11 1.65 11 3.3 11 5 C10.36191406 5.13277344 9.72382812 5.26554687 9.06640625 5.40234375 C7.82697266 5.66724609 7.82697266 5.66724609 6.5625 5.9375 C5.73878906 6.11152344 4.91507812 6.28554688 4.06640625 6.46484375 C2.02338796 6.80752994 2.02338796 6.80752994 1 8 C0.76924918 9.34747084 0.58846937 10.70377565 0.4375 12.0625 C0.2209375 14.0115625 0.2209375 14.0115625 0 16 C0.9075 15.95875 1.815 15.9175 2.75 15.875 C5.8782046 15.99531556 7.38614006 16.3914708 10 18 C10 18.66 10 19.32 10 20 C9.38511719 19.9278125 8.77023438 19.855625 8.13671875 19.78125 C6.92435547 19.64203125 6.92435547 19.64203125 5.6875 19.5 C4.48673828 19.36078125 4.48673828 19.36078125 3.26171875 19.21875 C0.88103445 18.95186537 0.88103445 18.95186537 -2 19 C-2.33 13.39 -2.66 7.78 -3 2 C-2.01 2 -1.02 2 0 2 C0 1.34 0 0.68 0 0 Z " fill="#FEF8E3" transform="translate(66,24)"/>
<path d="M0 0 C1.32 0.66 2.64 1.32 4 2 C3.67257813 2.65355469 3.34515625 3.30710937 3.0078125 3.98046875 C1.7346987 7.7948756 1.78281056 11.34480837 1.875 15.3125 C1.88853516 16.42334961 1.88853516 16.42334961 1.90234375 17.55664062 C1.92575787 19.37123467 1.96162385 21.18566071 2 23 C1.01 23 0.02 23 -1 23 C-2.73423342 23.30588054 -4.46332735 23.64173036 -6.1875 24 C-7.08855469 24.185625 -7.98960938 24.37125 -8.91796875 24.5625 C-9.60503906 24.706875 -10.29210937 24.85125 -11 25 C-11 23.68 -11 22.36 -11 21 C-8.03 20.01 -5.06 19.02 -2 18 C-1.67 14.7 -1.34 11.4 -1 8 C-2.11375 7.855625 -3.2275 7.71125 -4.375 7.5625 C-8 7 -8 7 -10 6 C-10 5.01 -10 4.02 -10 3 C-7.36 3 -4.72 3 -2 3 C-1.67 3.99 -1.34 4.98 -1 6 C-0.34 6 0.32 6 1 6 C0.67 4.02 0.34 2.04 0 0 Z " fill="#FDF8D3" transform="translate(18,21)"/>
<path d="M0 0 C1.65 0 3.3 0 5 0 C7.02558881 3.34939881 7.21738987 5.86962551 7.125 9.75 C7.10695313 10.73484375 7.08890625 11.7196875 7.0703125 12.734375 C7.03550781 13.85585937 7.03550781 13.85585937 7 15 C6.01 15 5.02 15 4 15 C4 16.32 4 17.64 4 19 C2.68 19 1.36 19 0 19 C0 19.99 0 20.98 0 22 C-1.65 22.33 -3.3 22.66 -5 23 C-4.01 21.515 -4.01 21.515 -3 20 C-2.34 20 -1.68 20 -1 20 C1.26679704 13.4829585 2.22024286 6.66072858 0 0 Z " fill="#178EA8" transform="translate(84,56)"/>
<path d="M0 0 C1.33332095 2.6666419 0.67102033 4.16680303 0 7 C-0.66 7 -1.32 7 -2 7 C-2 12.28 -2 17.56 -2 23 C-0.68 23.33 0.64 23.66 2 24 C2 23.34 2 22.68 2 22 C2.66 22 3.32 22 4 22 C4 21.34 4 20.68 4 20 C4.66 20 5.32 20 6 20 C6.33 19.01 6.66 18.02 7 17 C8.98 17 10.96 17 13 17 C8 22 8 22 5.8125 24.0625 C4.03731447 25.96011212 3.0178615 27.62498984 2 30 C-3.30450688 23.81140864 -4.43524078 19.06097915 -4.3359375 11.02734375 C-3.84650768 6.61678436 -2.31142572 3.75606679 0 0 Z " fill="#EFBF3C" transform="translate(23,20)"/>
<path d="M0 0 C0.66 0 1.32 0 2 0 C6.03402647 6.23440454 6.03402647 6.23440454 5.875 9.8125 C5 12 5 12 3 14 C-1.55555556 13.44444444 -1.55555556 13.44444444 -3 12 C-3.45226612 7.13813926 -2.40385693 4.20674962 0 0 Z " fill="#299CAB" transform="translate(33,86)"/>
<path d="M0 0 C0.66 0 1.32 0 2 0 C4.39332242 4.18831424 5.55085162 7.15250576 5 12 C4.34 12.66 3.68 13.32 3 14 C-1.55555556 13.44444444 -1.55555556 13.44444444 -3 12 C-3.45226612 7.13813926 -2.40385693 4.20674962 0 0 Z " fill="#258E9B" transform="translate(63,86)"/>
<path d="M0 0 C0.66 0 1.32 0 2 0 C4.04169485 2.90548882 5 4.40142046 5 8 C6.98 8 8.96 8 11 8 C11 8.66 11 9.32 11 10 C12.65 10.33 14.3 10.66 16 11 C16 11.33 16 11.66 16 12 C8.08 12.495 8.08 12.495 0 13 C0 12.34 0 11.68 0 11 C1.65 10.67 3.3 10.34 5 10 C3.35 9.67 1.7 9.34 0 9 C0 6.03 0 3.06 0 0 Z " fill="#FCF4D1" transform="translate(32,0)"/>
<path d="M0 0 C1.32 0.33 2.64 0.66 4 1 C3.67 1.66 3.34 2.32 3 3 C3.99 3 4.98 3 6 3 C6.33 4.98 6.66 6.96 7 9 C6.34 9 5.68 9 5 9 C4.87625 9.78375 4.7525 10.5675 4.625 11.375 C4 14 4 14 2 16 C0.00383446 14.00383446 0.59016573 10.18298037 0.4375 7.4375 C0.39431641 6.72658203 0.35113281 6.01566406 0.30664062 5.28320312 C0.20028223 3.52238088 0.09961154 1.7612168 0 0 Z " fill="#128CA5" transform="translate(61,45)"/>
<path d="M0 0 C0.33 0 0.66 0 1 0 C1.33 4.62 1.66 9.24 2 14 C1.01 14 0.02 14 -1 14 C-2.73423342 14.30588054 -4.46332735 14.64173036 -6.1875 15 C-7.08855469 15.185625 -7.98960938 15.37125 -8.91796875 15.5625 C-9.60503906 15.706875 -10.29210937 15.85125 -11 16 C-11 14.68 -11 13.36 -11 12 C-9.54494642 11.47007308 -8.08581873 10.9513211 -6.625 10.4375 C-5.81289062 10.14746094 -5.00078125 9.85742188 -4.1640625 9.55859375 C-2 9 -2 9 0 10 C0 6.7 0 3.4 0 0 Z " fill="#FCEFBC" transform="translate(18,30)"/>
<path d="M0 0 C0.33 0.99 0.66 1.98 1 3 C-0.21236328 3.05607422 -0.21236328 3.05607422 -1.44921875 3.11328125 C-2.51785156 3.17902344 -3.58648437 3.24476562 -4.6875 3.3125 C-5.74324219 3.37050781 -6.79898438 3.42851563 -7.88671875 3.48828125 C-11.2498418 4.04106559 -13.16442627 5.17435664 -16 7 C-18.8125 7.1875 -18.8125 7.1875 -21 7 C-15.08425124 -0.02495165 -8.69463042 -0.31052251 0 0 Z " fill="#F39F13" transform="translate(52,30)"/>
<path d="M0 0 C2.64 0.99 5.28 1.98 8 3 C8 3.99 8 4.98 8 6 C8.99 5.34 9.98 4.68 11 4 C12.32 4.33 13.64 4.66 15 5 C10.545 7.97 10.545 7.97 6 11 C6 10.01 6 9.02 6 8 C5.01 8 4.02 8 3 8 C0.89229241 5.11165997 0 3.61537605 0 0 Z " fill="#FDF9D3" transform="translate(17,9)"/>
<path d="M0 0 C6.0407508 -0.4314822 11.12474457 0.06089087 16 4 C16.84765625 5.953125 16.84765625 5.953125 17 8 C16.01 9.485 16.01 9.485 15 11 C14.01 10.34 13.02 9.68 12 9 C12 7.68 12 6.36 12 5 C10.68 4.67 9.36 4.34 8 4 C8 3.34 8 2.68 8 2 C5.36 1.67 2.72 1.34 0 1 C0 0.67 0 0.34 0 0 Z " fill="#E4A51F" transform="translate(40,12)"/>
<path d="M0 0 C0.33 0 0.66 0 1 0 C1.33 3.3 1.66 6.6 2 10 C2.9075 9.95875 3.815 9.9175 4.75 9.875 C7.8782046 9.99531556 9.38614006 10.3914708 12 12 C12 12.66 12 13.32 12 14 C11.38511719 13.9278125 10.77023438 13.855625 10.13671875 13.78125 C9.32847656 13.6884375 8.52023438 13.595625 7.6875 13.5 C6.88699219 13.4071875 6.08648437 13.314375 5.26171875 13.21875 C2.88103445 12.95186537 2.88103445 12.95186537 0 13 C0 8.71 0 4.42 0 0 Z " fill="#F1E6C4" transform="translate(64,30)"/>
<path d="M0 0 C0.99 0.66 1.98 1.32 3 2 C3.6875 5.625 3.6875 5.625 4 9 C-0.875 8.125 -0.875 8.125 -2 7 C-2.04080783 5.00041636 -2.04254356 2.99954746 -2 1 C-1.34 0.67 -0.68 0.34 0 0 Z " fill="#25A0A9" transform="translate(62,91)"/>
<path d="M0 0 C-0.78375 0.598125 -1.5675 1.19625 -2.375 1.8125 C-5.14574323 3.91085249 -5.14574323 3.91085249 -7 7 C-7.24138731 9.18477335 -7.24138731 9.18477335 -7.125 11.5 C-7.10695313 12.2734375 -7.08890625 13.046875 -7.0703125 13.84375 C-7.04710937 14.5553125 -7.02390625 15.266875 -7 16 C-7 16.99 -7 17.98 -7 19 C-9 17 -9 17 -9.1953125 14.1796875 C-9.17210937 13.08914062 -9.14890625 11.99859375 -9.125 10.875 C-9.10695313 9.77929688 -9.08890625 8.68359375 -9.0703125 7.5546875 C-9.04710937 6.71164063 -9.02390625 5.86859375 -9 5 C-8.34 5 -7.68 5 -7 5 C-6.87625 4.195625 -6.7525 3.39125 -6.625 2.5625 C-6.41875 1.716875 -6.2125 0.87125 -6 0 C-3.50907189 -1.24546405 -2.58919267 -0.7767578 0 0 Z " fill="#D7F6FA" transform="translate(16,56)"/>
<path d="M0 0 C1.2065625 0.0309375 1.2065625 0.0309375 2.4375 0.0625 C1.4475 0.5575 1.4475 0.5575 0.4375 1.0625 C-1.28439897 5.17592531 -1.86553677 8.61796069 -1.5625 13.0625 C-1.2325 13.7225 -0.9025 14.3825 -0.5625 15.0625 C-1.8825 14.7325 -3.2025 14.4025 -4.5625 14.0625 C-4.42220581 11.9162974 -4.27511836 9.77053782 -4.125 7.625 C-4.04378906 6.43003906 -3.96257813 5.23507813 -3.87890625 4.00390625 C-3.45727786 0.08432385 -3.45727786 0.08432385 0 0 Z " fill="#D0F1F4" transform="translate(62.5625,84.9375)"/>
<path d="M0 0 C0 2 0 4 0 6 C0.66 6.33 1.32 6.66 2 7 C1.75 8.875 1.75 8.875 1 11 C-1.0625 12.25 -1.0625 12.25 -3 13 C-3.27429625 7.60550707 -3.36055646 4.48074195 0 0 Z " fill="#399FA1" transform="translate(28,44)"/>
<path d="M0 0 C0.94746094 0.00386719 1.89492188 0.00773437 2.87109375 0.01171875 C5.56839177 0.31315844 7.24735928 0.93874037 9.5625 2.3125 C5.80850202 3.5164337 2.23032588 3.41127617 -1.6875 3.375 C-2.95078125 3.36597656 -4.2140625 3.35695312 -5.515625 3.34765625 C-6.47984375 3.33605469 -7.4440625 3.32445312 -8.4375 3.3125 C-5.89664084 0.07012416 -4.02528338 -0.07100228 0 0 Z " fill="#B3A353" transform="translate(46.4375,32.6875)"/>
<path d="M0 0 C-0.75 4.75 -0.75 4.75 -3 7 C-4.32 7 -5.64 7 -7 7 C-6.61402985 4.20171644 -6.19863427 3.1794116 -4.0625 1.25 C-2 0 -2 0 0 0 Z " fill="#EDCF72" transform="translate(67,9)"/>
<path d="M0 0 C1.98 0 3.96 0 6 0 C3.14723863 2.93200474 0.34920216 5.64315404 -3 8 C-3 6.35 -3 4.7 -3 3 C-2.34 3 -1.68 3 -1 3 C-0.67 2.01 -0.34 1.02 0 0 Z " fill="#CCA642" transform="translate(30,37)"/>
<path d="M0 0 C-3.42716331 2.28477554 -6.04925971 2.67487662 -10.0390625 3.33984375 C-10.68617187 3.55769531 -11.33328125 3.77554687 -12 4 C-12.33 4.99 -12.66 5.98 -13 7 C-13.99 6.67 -14.98 6.34 -16 6 C-14.75627811 5.01287122 -13.50472782 4.03560095 -12.25 3.0625 C-11.55390625 2.51722656 -10.8578125 1.97195312 -10.140625 1.41015625 C-6.54685918 -0.95726977 -4.07664597 -1.31035049 0 0 Z " fill="#F0BF35" transform="translate(40,13)"/>
<path d="M0 0 C0.886875 0.103125 1.77375 0.20625 2.6875 0.3125 C0.16919253 3.43520126 -1.0386549 4.25773098 -5.0625 5.0625 C-6.67125 5.18625 -6.67125 5.18625 -8.3125 5.3125 C-4.12788462 0.38942308 -4.12788462 0.38942308 0 0 Z " fill="#ECA022" transform="translate(39.3125,31.6875)"/>
<path d="M0 0 C0.33 0 0.66 0 1 0 C1 4.62 1 9.24 1 14 C0.67 13.34 0.34 12.68 0 12 C-1.66072849 11.31867549 -3.327767 10.65257873 -5 10 C-5.66 9.34 -6.32 8.68 -7 8 C-4.69 8.33 -2.38 8.66 0 9 C0 6.03 0 3.06 0 0 Z " fill="#D29F4C" transform="translate(63,28)"/>
<path d="M0 0 C0.33 1.65 0.66 3.3 1 5 C-3.55737263 4.56179109 -6.57653445 4.14958831 -10 1 C-3.375 0 -3.375 0 0 0 Z " fill="#F09A24" transform="translate(62,32)"/>
<path d="M0 0 C1.32 0.66 2.64 1.32 4 2 C-1.94 2.495 -1.94 2.495 -8 3 C-8 2.01 -8 1.02 -8 0 C-4.63599792 -1.12133403 -3.35942868 -0.90131013 0 0 Z " fill="#C6E7EA" transform="translate(77,48)"/>
<path d="M0 0 C1.32 0 2.64 0 4 0 C3.125 5.75 3.125 5.75 2 8 C1.34 8 0.68 8 0 8 C0 5.36 0 2.72 0 0 Z " fill="#EBC652" transform="translate(48,0)"/>
<path d="M0 0 C0.66 0 1.32 0 2 0 C2.66 2.64 3.32 5.28 4 8 C2.68 8 1.36 8 0 8 C0 5.36 0 2.72 0 0 Z " fill="#F1C449" transform="translate(32,0)"/>
<path d="M0 0 C0.95178554 2.56982095 1.00609339 3.97088712 0.4375 6.6875 C-1 9 -1 9 -4.125 9.8125 C-5.07375 9.874375 -6.0225 9.93625 -7 10 C-6.57847656 9.52949219 -6.15695313 9.05898437 -5.72265625 8.57421875 C-5.17480469 7.95160156 -4.62695312 7.32898438 -4.0625 6.6875 C-3.51722656 6.07261719 -2.97195312 5.45773438 -2.41015625 4.82421875 C-0.79918441 2.94758042 -0.79918441 2.94758042 0 0 Z " fill="#D6F3F8" transform="translate(92,69)"/>
<path d="M0 0 C3.53586014 3.17320782 5.58578031 5.16743695 6 10 C5.34 10 4.68 10 4 10 C4 8.68 4 7.36 4 6 C3.01 6 2.02 6 1 6 C1 5.34 1 4.68 1 4 C0.34 3.34 -0.32 2.68 -1 2 C-0.67 1.34 -0.34 0.68 0 0 Z " fill="#288395" transform="translate(63,42)"/>
<path d="M0 0 C2.4375 0.75 2.4375 0.75 5 2 C5.8125 4.125 5.8125 4.125 6 6 C5.01 6 4.02 6 3 6 C0.8125 3.5 0.8125 3.5 -1 1 C-0.67 0.67 -0.34 0.34 0 0 Z " fill="#EBC053" transform="translate(17,9)"/>
<path d="M0 0 C0.66 0 1.32 0 2 0 C1.74438677 2.3431213 1.40729228 4.67843403 1 7 C0.01 7.495 0.01 7.495 -1 8 C-1.33 6.02 -1.66 4.04 -2 2 C-1.34 2 -0.68 2 0 2 C0 1.34 0 0.68 0 0 Z " fill="#EAAF2E" transform="translate(25,42)"/>
<path d="M0 0 C-0.33 0.99 -0.66 1.98 -1 3 C-3.31 3.33 -5.62 3.66 -8 4 C-8 3.34 -8 2.68 -8 2 C-5.09399739 0.74335022 -3.20395416 0 0 0 Z " fill="#E2C247" transform="translate(76,24)"/>
<path d="M0 0 C5.75 -0.125 5.75 -0.125 8 1 C8 1.66 8 2.32 8 3 C2.25 3.125 2.25 3.125 0 2 C0 1.34 0 0.68 0 0 Z " fill="#ECBF47" transform="translate(68,41)"/>
<path d="M0 0 C2.64 0 5.28 0 8 0 C7.01 0.66 6.02 1.32 5 2 C5 2.66 5 3.32 5 4 C2.03 3.505 2.03 3.505 -1 3 C-0.67 2.01 -0.34 1.02 0 0 Z " fill="#479D95" transform="translate(36,36)"/>
<path d="M0 0 C0.33 0.66 0.66 1.32 1 2 C3.3140622 2.73075648 5.64828869 3.40138258 8 4 C7.01 4.495 7.01 4.495 6 5 C5.67 5.66 5.34 6.32 5 7 C2.5 5.75 2.5 5.75 0 4 C0 2.68 0 1.36 0 0 Z " fill="#FCF8DA" transform="translate(7,25)"/>
<path d="M0 0 C2.31 0.66 4.62 1.32 7 2 C7 2.66 7 3.32 7 4 C4.69 3.67 2.38 3.34 0 3 C0 2.01 0 1.02 0 0 Z " fill="#E7C344" transform="translate(8,24)"/>
<path d="M0 0 C0.66 0 1.32 0 2 0 C5.11450382 4.15267176 5.11450382 4.15267176 4.6875 7.3125 C4.460625 7.869375 4.23375 8.42625 4 9 C4 8.01 4 7.02 4 6 C3.01 5.67 2.02 5.34 1 5 C0.67 3.35 0.34 1.7 0 0 Z " fill="#2D8699" transform="translate(33,86)"/>
<path d="M0 0 C0 0.66 0 1.32 0 2 C-2.31 2.33 -4.62 2.66 -7 3 C-7 2.34 -7 1.68 -7 1 C-4.53721199 -0.231394 -2.7204945 -0.07159196 0 0 Z " fill="#DFBC46" transform="translate(15,41)"/>
<path d="M0 0 C0.33 0 0.66 0 1 0 C1 1.65 1 3.3 1 5 C-1.97 5 -4.94 5 -8 5 C-8 4.67 -8 4.34 -8 4 C-6.865625 3.71125 -5.73125 3.4225 -4.5625 3.125 C-3.386875 2.75375 -2.21125 2.3825 -1 2 C-0.67 1.34 -0.34 0.68 0 0 Z " fill="#FCF6C5" transform="translate(76,24)"/>
<path d="M0 0 C1.98 0.495 1.98 0.495 4 1 C4 1.66 4 2.32 4 3 C3.01 3.33 2.02 3.66 1 4 C1.33 4.66 1.66 5.32 2 6 C1.01 5.67 0.02 5.34 -1 5 C-0.67 3.35 -0.34 1.7 0 0 Z " fill="#FDF5CF" transform="translate(16,7)"/>
</svg>
